<svg width="29" height="29" viewBox="0 0 29 29" fill="none" xmlns="http://www.w3.org/2000/svg">
<path fill-rule="evenodd" clip-rule="evenodd" d="M19.8559 20.1827L18.3246 23.7554C18.127 24.216 17.6725 24.5132 17.1713 24.5097C16.6701 24.5061 16.2199 24.2024 16.0288 23.739L11.7687 13.3946C11.5772 12.9297 11.684 12.3952 12.0396 12.0396C12.3952 11.684 12.9297 11.5772 13.3946 11.7687L23.739 16.0288C24.2024 16.2199 24.5061 16.6701 24.5097 17.1713C24.5132 17.6725 24.216 18.127 23.7554 18.3246L20.1827 19.8559C20.0358 19.9188 19.9188 20.0358 19.8559 20.1827Z" fill="#212121" stroke="white" stroke-linecap="round" stroke-linejoin="round"/>
<path d="M7.42654 17.8945L6.11816 19.2029" stroke="#161924" stroke-width="1.75" stroke-linecap="round" stroke-linejoin="round"/>
<path d="M12.6617 3.50195V5.35189" stroke="#161924" stroke-width="1.75" stroke-linecap="round" stroke-linejoin="round"/>
<path d="M6.11816 6.11816L7.42654 7.42654" stroke="#161924" stroke-width="1.75" stroke-linecap="round" stroke-linejoin="round"/>
<path d="M3.50098 12.6617H5.35091" stroke="#161924" stroke-width="1.75" stroke-linecap="round" stroke-linejoin="round"/>
<path d="M19.2039 6.11816L17.8955 7.42654" stroke="#161924" stroke-width="1.75" stroke-linecap="round" stroke-linejoin="round"/>
</svg>
