<svg width="38" height="38" viewBox="0 0 38 38" fill="none" xmlns="http://www.w3.org/2000/svg">
<path d="M31.9513 22.4481L21.883 9.1134C20.5297 7.31904 18.8856 6.46179 17.2408 6.69295C15.596 6.92411 14.2519 8.20132 13.4456 10.2992L7.44278 25.8926C6.68517 27.8812 6.82098 29.6674 7.83296 30.9464C8.84494 32.2254 10.5597 32.7654 12.669 32.469L28.7402 30.2103C30.8496 29.9138 32.3491 28.9221 32.9693 27.4137C33.5895 25.9053 33.226 24.1383 31.9513 22.4481ZM17.5343 15.6142C17.462 15.0994 17.8289 14.6126 18.3436 14.5402C18.8584 14.4679 19.3453 14.8348 19.4176 15.3495L20.2999 21.6273C20.3723 22.1421 20.0054 22.629 19.4906 22.7014C18.9758 22.7737 18.4889 22.4068 18.4166 21.892L17.5343 15.6142ZM20.9044 26.2925C20.8487 26.3516 20.7929 26.4106 20.7372 26.4697C20.6689 26.5305 20.5989 26.5787 20.5271 26.6144C20.4571 26.6627 20.3852 26.6984 20.2991 26.7233C20.2256 26.7464 20.1394 26.7713 20.0641 26.7819C19.9888 26.7925 19.8991 26.7923 19.8095 26.7921C19.7324 26.7901 19.6535 26.7756 19.5729 26.7485C19.494 26.734 19.4134 26.7069 19.331 26.6673C19.2611 26.6259 19.1913 26.5845 19.1215 26.5431C18.8619 26.3363 18.678 26.0293 18.6321 25.7028C18.5862 25.3764 18.6784 25.0305 18.8709 24.7602C18.9266 24.7012 18.9823 24.6421 19.0381 24.5831C19.1063 24.5223 19.1764 24.474 19.2482 24.4383C19.3182 24.3901 19.39 24.3544 19.4636 24.3312C19.6215 24.2706 19.7973 24.2459 19.9533 24.2624C20.0429 24.2626 20.1218 24.2771 20.2024 24.3042C20.2813 24.3187 20.3619 24.3458 20.4443 24.3854C20.5141 24.4268 20.584 24.4682 20.6538 24.5096C20.9133 24.7164 21.0973 25.0235 21.1432 25.3499C21.1891 25.6764 21.0968 26.0222 20.9044 26.2925Z" fill="url(#paint0_linear_3365_93007)"/>
<path d="M31.0724 23.7781L22.9579 9.17187C21.8675 7.20662 20.3587 6.12891 18.6977 6.12891C17.0368 6.12891 15.528 7.20662 14.4376 9.17187L6.32301 23.7781C5.29601 25.6419 5.1819 27.4296 6.00603 28.837C6.83017 30.2444 8.45308 31.0178 10.5832 31.0178H26.8123C28.9424 31.0178 30.5653 30.2444 31.3894 28.837C32.2135 27.4296 32.0994 25.6292 31.0724 23.7781ZM17.7468 15.0042C17.7468 14.4844 18.1779 14.0533 18.6977 14.0533C19.2176 14.0533 19.6486 14.4844 19.6486 15.0042V21.3437C19.6486 21.8636 19.2176 22.2946 18.6977 22.2946C18.1779 22.2946 17.7468 21.8636 17.7468 21.3437V15.0042ZM19.5979 26.0476C19.5345 26.0983 19.4711 26.1491 19.4077 26.1998C19.3317 26.2505 19.2556 26.2885 19.1795 26.3139C19.1034 26.3519 19.0274 26.3773 18.9386 26.39C18.8625 26.4026 18.7738 26.4153 18.6977 26.4153C18.6216 26.4153 18.5329 26.4026 18.4441 26.39C18.3681 26.3773 18.292 26.3519 18.2159 26.3139C18.1398 26.2885 18.0638 26.2505 17.9877 26.1998C17.9243 26.1491 17.8609 26.0983 17.7975 26.0476C17.5693 25.8067 17.4298 25.4771 17.4298 25.1474C17.4298 24.8178 17.5693 24.4881 17.7975 24.2472C17.8609 24.1965 17.9243 24.1458 17.9877 24.0951C18.0638 24.0443 18.1398 24.0063 18.2159 23.9809C18.292 23.9429 18.3681 23.9176 18.4441 23.9049C18.609 23.8668 18.7865 23.8668 18.9386 23.9049C19.0274 23.9176 19.1034 23.9429 19.1795 23.9809C19.2556 24.0063 19.3317 24.0443 19.4077 24.0951C19.4711 24.1458 19.5345 24.1965 19.5979 24.2472C19.8261 24.4881 19.9656 24.8178 19.9656 25.1474C19.9656 25.4771 19.8261 25.8067 19.5979 26.0476Z" fill="white" fill-opacity="0.3"/>
<foreignObject x="4.77019" y="5.43816" width="27.8541" height="26.2721"><div xmlns="http://www.w3.org/1999/xhtml" style="backdrop-filter:blur(0.35px);clip-path:url(#bgblur_0_3365_93007_clip_path);height:100%;width:100%"></div></foreignObject><g filter="url(#filter0_f_3365_93007)" data-figma-bg-blur-radius="0.690746">
<path d="M31.0724 23.7781L22.9579 9.17187C21.8675 7.20662 20.3587 6.12891 18.6977 6.12891C17.0368 6.12891 15.528 7.20662 14.4376 9.17187L6.32301 23.7781C5.29601 25.6419 5.1819 27.4296 6.00603 28.837C6.83017 30.2444 8.45308 31.0178 10.5832 31.0178H26.8123C28.9424 31.0178 30.5653 30.2444 31.3894 28.837C32.2135 27.4296 32.0994 25.6292 31.0724 23.7781ZM17.7468 15.0042C17.7468 14.4844 18.1779 14.0533 18.6977 14.0533C19.2176 14.0533 19.6486 14.4844 19.6486 15.0042V21.3437C19.6486 21.8636 19.2176 22.2946 18.6977 22.2946C18.1779 22.2946 17.7468 21.8636 17.7468 21.3437V15.0042ZM19.5979 26.0476C19.5345 26.0983 19.4711 26.1491 19.4077 26.1998C19.3317 26.2505 19.2556 26.2885 19.1795 26.3139C19.1034 26.3519 19.0274 26.3773 18.9386 26.39C18.8625 26.4026 18.7738 26.4153 18.6977 26.4153C18.6216 26.4153 18.5329 26.4026 18.4441 26.39C18.3681 26.3773 18.292 26.3519 18.2159 26.3139C18.1398 26.2885 18.0638 26.2505 17.9877 26.1998C17.9243 26.1491 17.8609 26.0983 17.7975 26.0476C17.5693 25.8067 17.4298 25.4771 17.4298 25.1474C17.4298 24.8178 17.5693 24.4881 17.7975 24.2472C17.8609 24.1965 17.9243 24.1458 17.9877 24.0951C18.0638 24.0443 18.1398 24.0063 18.2159 23.9809C18.292 23.9429 18.3681 23.9176 18.4441 23.9049C18.609 23.8668 18.7865 23.8668 18.9386 23.9049C19.0274 23.9176 19.1034 23.9429 19.1795 23.9809C19.2556 24.0063 19.3317 24.0443 19.4077 24.0951C19.4711 24.1458 19.5345 24.1965 19.5979 24.2472C19.8261 24.4881 19.9656 24.8178 19.9656 25.1474C19.9656 25.4771 19.8261 25.8067 19.5979 26.0476Z" fill="white" fill-opacity="0.3"/>
<path d="M18.6973 6.3877C20.2313 6.3877 21.6683 7.3818 22.7314 9.29785L30.8457 23.9043C31.8433 25.7027 31.9298 27.4017 31.166 28.7061C30.4027 30.0096 28.8826 30.7587 26.8125 30.7588H10.583C8.51287 30.7588 6.99284 30.0096 6.22949 28.7061C5.46587 27.402 5.55072 25.715 6.54883 23.9033L6.5498 23.9043L14.6641 9.29785C15.7271 7.38198 17.1634 6.38789 18.6973 6.3877ZM18.54 23.626L18.4014 23.6494C18.2974 23.6668 18.1964 23.7006 18.0996 23.749C18.0114 23.7818 17.9256 23.8244 17.8438 23.8789L17.8262 23.8926C17.7628 23.9433 17.6991 23.9942 17.6357 24.0449L17.6221 24.0557L17.6094 24.0693C17.3387 24.3551 17.1709 24.7472 17.1709 25.1475C17.1709 25.5477 17.3387 25.9398 17.6094 26.2256L17.6221 26.2393L17.6357 26.25C17.6991 26.3007 17.7628 26.3516 17.8262 26.4023L17.835 26.4092L17.8438 26.415C17.9255 26.4695 18.0115 26.5121 18.0996 26.5449V26.5459C18.1964 26.5943 18.2974 26.6282 18.4014 26.6455L18.4072 26.6465C18.4906 26.6584 18.5991 26.6748 18.6973 26.6748C18.7939 26.6748 18.8982 26.6581 18.9746 26.6455L18.9756 26.6465L18.9766 26.6455C18.9781 26.6453 18.98 26.6458 18.9814 26.6455L18.9805 26.6445C19.0968 26.6273 19.1977 26.5935 19.2949 26.5449C19.3833 26.5121 19.4697 26.4697 19.5518 26.415L19.5605 26.4092L19.5693 26.4023C19.6327 26.3516 19.6964 26.3007 19.7598 26.25L19.7734 26.2393L19.7861 26.2256C20.0568 25.9398 20.2246 25.5477 20.2246 25.1475C20.2246 24.7472 20.0568 24.3551 19.7861 24.0693L19.7734 24.0557L19.7598 24.0449L19.5693 23.8926L19.5518 23.8789L19.4092 23.7969C19.3719 23.7782 19.3334 23.7633 19.2949 23.749H19.2959C19.2044 23.7033 19.1088 23.6724 19.001 23.6543L19.002 23.6533C18.8559 23.6168 18.6957 23.6084 18.54 23.626ZM18.6973 13.7939C18.0345 13.7942 17.4875 14.3412 17.4873 15.0039V21.3438C17.4873 22.0066 18.0345 22.5535 18.6973 22.5537C19.3603 22.5537 19.9082 22.0068 19.9082 21.3438V15.0039C19.908 14.341 19.3602 13.7939 18.6973 13.7939Z" stroke="white" stroke-width="0.518519"/>
</g>
<mask id="mask0_3365_93007" style="mask-type:alpha" maskUnits="userSpaceOnUse" x="5" y="6" width="27" height="26">
<path d="M31.0724 23.7781L22.9579 9.17187C21.8675 7.20662 20.3587 6.12891 18.6977 6.12891C17.0368 6.12891 15.528 7.20662 14.4376 9.17187L6.32301 23.7781C5.29601 25.6419 5.1819 27.4296 6.00603 28.837C6.83017 30.2444 8.45308 31.0178 10.5832 31.0178H26.8123C28.9424 31.0178 30.5653 30.2444 31.3894 28.837C32.2135 27.4296 32.0994 25.6292 31.0724 23.7781ZM17.7468 15.0042C17.7468 14.4844 18.1779 14.0533 18.6977 14.0533C19.2176 14.0533 19.6486 14.4844 19.6486 15.0042V21.3437C19.6486 21.8636 19.2176 22.2946 18.6977 22.2946C18.1779 22.2946 17.7468 21.8636 17.7468 21.3437V15.0042ZM19.5979 26.0476C19.5345 26.0983 19.4711 26.1491 19.4077 26.1998C19.3317 26.2505 19.2556 26.2885 19.1795 26.3139C19.1034 26.3519 19.0274 26.3773 18.9386 26.39C18.8625 26.4026 18.7738 26.4153 18.6977 26.4153C18.6216 26.4153 18.5329 26.4026 18.4441 26.39C18.3681 26.3773 18.292 26.3519 18.2159 26.3139C18.1398 26.2885 18.0638 26.2505 17.9877 26.1998C17.9243 26.1491 17.8609 26.0983 17.7975 26.0476C17.5693 25.8067 17.4298 25.4771 17.4298 25.1474C17.4298 24.8178 17.5693 24.4881 17.7975 24.2472C17.8609 24.1965 17.9243 24.1458 17.9877 24.0951C18.0638 24.0443 18.1398 24.0063 18.2159 23.9809C18.292 23.9429 18.3681 23.9176 18.4441 23.9049C18.609 23.8668 18.7865 23.8668 18.9386 23.9049C19.0274 23.9176 19.1034 23.9429 19.1795 23.9809C19.2556 24.0063 19.3317 24.0443 19.4077 24.0951C19.4711 24.1458 19.5345 24.1965 19.5979 24.2472C19.8261 24.4881 19.9656 24.8178 19.9656 25.1474C19.9656 25.4771 19.8261 25.8067 19.5979 26.0476Z" fill="white" fill-opacity="0.3"/>
</mask>
<g mask="url(#mask0_3365_93007)">
<g filter="url(#filter1_f_3365_93007)">
<circle cx="18.6953" cy="18.5312" r="16.3437" fill="#FF6E6E"/>
</g>
</g>
<defs>
<filter id="filter0_f_3365_93007" x="4.77019" y="5.43816" width="27.8541" height="26.2721" filterUnits="userSpaceOnUse" color-interpolation-filters="sRGB">
<feFlood flood-opacity="0" result="BackgroundImageFix"/>
<feBlend mode="normal" in="SourceGraphic" in2="BackgroundImageFix" result="shape"/>
<feGaussianBlur stdDeviation="0.345373" result="effect1_foregroundBlur_3365_93007"/>
</filter>
<clipPath id="bgblur_0_3365_93007_clip_path" transform="translate(-4.77019 -5.43816)"><path d="M31.0724 23.7781L22.9579 9.17187C21.8675 7.20662 20.3587 6.12891 18.6977 6.12891C17.0368 6.12891 15.528 7.20662 14.4376 9.17187L6.32301 23.7781C5.29601 25.6419 5.1819 27.4296 6.00603 28.837C6.83017 30.2444 8.45308 31.0178 10.5832 31.0178H26.8123C28.9424 31.0178 30.5653 30.2444 31.3894 28.837C32.2135 27.4296 32.0994 25.6292 31.0724 23.7781ZM17.7468 15.0042C17.7468 14.4844 18.1779 14.0533 18.6977 14.0533C19.2176 14.0533 19.6486 14.4844 19.6486 15.0042V21.3437C19.6486 21.8636 19.2176 22.2946 18.6977 22.2946C18.1779 22.2946 17.7468 21.8636 17.7468 21.3437V15.0042ZM19.5979 26.0476C19.5345 26.0983 19.4711 26.1491 19.4077 26.1998C19.3317 26.2505 19.2556 26.2885 19.1795 26.3139C19.1034 26.3519 19.0274 26.3773 18.9386 26.39C18.8625 26.4026 18.7738 26.4153 18.6977 26.4153C18.6216 26.4153 18.5329 26.4026 18.4441 26.39C18.3681 26.3773 18.292 26.3519 18.2159 26.3139C18.1398 26.2885 18.0638 26.2505 17.9877 26.1998C17.9243 26.1491 17.8609 26.0983 17.7975 26.0476C17.5693 25.8067 17.4298 25.4771 17.4298 25.1474C17.4298 24.8178 17.5693 24.4881 17.7975 24.2472C17.8609 24.1965 17.9243 24.1458 17.9877 24.0951C18.0638 24.0443 18.1398 24.0063 18.2159 23.9809C18.292 23.9429 18.3681 23.9176 18.4441 23.9049C18.609 23.8668 18.7865 23.8668 18.9386 23.9049C19.0274 23.9176 19.1034 23.9429 19.1795 23.9809C19.2556 24.0063 19.3317 24.0443 19.4077 24.0951C19.4711 24.1458 19.5345 24.1965 19.5979 24.2472C19.8261 24.4881 19.9656 24.8178 19.9656 25.1474C19.9656 25.4771 19.8261 25.8067 19.5979 26.0476Z"/>
</clipPath><filter id="filter1_f_3365_93007" x="-34.3758" y="-34.5399" width="106.142" height="106.142" filterUnits="userSpaceOnUse" color-interpolation-filters="sRGB">
<feFlood flood-opacity="0" result="BackgroundImageFix"/>
<feBlend mode="normal" in="SourceGraphic" in2="BackgroundImageFix" result="shape"/>
<feGaussianBlur stdDeviation="18.3637" result="effect1_foregroundBlur_3365_93007"/>
</filter>
<linearGradient id="paint0_linear_3365_93007" x1="16.264" y1="12.4632" x2="26.1048" y2="30.6224" gradientUnits="userSpaceOnUse">
<stop stop-color="#FF6E6E"/>
<stop offset="1" stop-color="#FFB3B3"/>
</linearGradient>
</defs>
</svg>
