<svg width="72" height="72" viewBox="0 0 72 72" fill="none" xmlns="http://www.w3.org/2000/svg">
<path d="M57.3628 44.637C61.2568 48.531 60.8368 55.098 56.1088 58.419C53.0998 60.531 48.8968 60.531 45.8878 58.419C41.1568 55.101 40.7398 48.531 44.6338 44.637C48.1498 41.121 53.8498 41.121 57.3628 44.637" stroke="#B0B0B0" stroke-width="3.75" stroke-linecap="round" stroke-linejoin="round"/>
<path d="M62.9994 62.9974L57.3594 57.3574" stroke="#B0B0B0" stroke-width="3.75" stroke-linecap="round" stroke-linejoin="round"/>
<path d="M25.918 24V18.6V18.6C25.918 13.299 30.217 9 35.518 9V9C40.819 9 45.118 13.299 45.118 18.6V18.6V24" stroke="#B0B0B0" stroke-width="3.75" stroke-linecap="round" stroke-linejoin="round"/>
<path d="M57.2129 33L56.7329 26.769C56.6129 25.206 55.3109 24 53.7419 24H17.2979C15.7289 24 14.4269 25.206 14.3069 26.772L12.0179 56.541C11.7509 60.024 14.5049 63 17.9999 63H35.9999" stroke="#B0B0B0" stroke-width="3.75" stroke-linecap="round" stroke-linejoin="round"/>
</svg>
