<svg width="20" height="20" viewBox="0 0 20 20" fill="none" xmlns="http://www.w3.org/2000/svg">
<path d="M4.16626 13.3346H5.83293" stroke="#64B5F6" stroke-width="1.25" stroke-linecap="round" stroke-linejoin="round"/>
<path d="M10.8329 15.8333H3.33293C2.41209 15.8333 1.66626 15.0875 1.66626 14.1667V6.3075C1.66626 6.0825 1.71209 5.85917 1.80043 5.6525L2.71543 3.51167C2.97793 2.89833 3.58043 2.5 4.24793 2.5H12.4179C13.0854 2.5 13.6879 2.89833 13.9504 3.51167L14.8654 5.6525C14.9538 5.86 14.9996 6.0825 14.9996 6.3075V9.25" stroke="#64B5F6" stroke-width="1.25" stroke-linecap="round" stroke-linejoin="round"/>
<path d="M8.33293 2.5V6.2" stroke="#64B5F6" stroke-width="1.25" stroke-linecap="round" stroke-linejoin="round"/>
<path d="M14.9913 6.20182H1.66626" stroke="#64B5F6" stroke-width="1.25" stroke-linecap="round" stroke-linejoin="round"/>
<path d="M17.1126 10.3884C18.7398 12.0155 18.7398 14.6537 17.1126 16.2809C15.4854 17.9081 12.8472 17.9081 11.22 16.2809C9.59284 14.6537 9.59284 12.0155 11.22 10.3884C12.8472 8.76117 15.4854 8.76117 17.1126 10.3884" stroke="#64B5F6" stroke-width="1.25" stroke-linecap="round" stroke-linejoin="round"/>
<path d="M15.4265 13.303H13.7399V11.6172" stroke="#64B5F6" stroke-width="1.25" stroke-linecap="round" stroke-linejoin="round"/>
</svg>
